<svg width="16" height="16" viewBox="0 0 16 16"
    xmlns="http://www.w3.org/2000/svg">
    <path d="M14.2198 1.40103L11.7863 1.76822C11.5156 1.80888 11.4067 2.13999 11.6001 2.33332L12.1613 2.89582L10.1183 4.93879L9.52193 4.38019C9.39465 4.26112 9.2258 4.19662 9.05154 4.20051C8.87728 4.2044 8.71148 4.27638 8.58964 4.40103L6.32792 6.71874L5.80448 6.1953C5.68036 6.07121 5.51231 6.00107 5.3368 6.00009C5.1613 5.99912 4.99248 6.06739 4.86698 6.19009L2.20162 8.80207C2.1373 8.86294 2.08574 8.93602 2.04997 9.01703C2.0142 9.09805 1.99493 9.18538 1.99328 9.27392C1.99163 9.36247 2.00764 9.45046 2.04037 9.53275C2.0731 9.61504 2.1219 9.68998 2.18391 9.75321C2.24592 9.81643 2.31991 9.86667 2.40155 9.90098C2.4832 9.9353 2.57086 9.95301 2.65942 9.95307C2.74798 9.95313 2.83567 9.93555 2.91736 9.90135C2.99905 9.86716 3.07311 9.81703 3.13521 9.75389L5.32792 7.60415L5.86178 8.13801C5.92412 8.20033 5.99821 8.24968 6.07975 8.28318C6.16129 8.31669 6.24867 8.33369 6.33682 8.33321C6.42498 8.33272 6.51216 8.31476 6.59333 8.28036C6.6745 8.24596 6.74804 8.19581 6.80969 8.1328L9.08704 5.79946L9.67688 6.35285C9.80307 6.47122 9.97033 6.53589 10.1433 6.53322C10.3163 6.53055 10.4815 6.46073 10.604 6.33853L13.104 3.83853L13.6665 4.39973C13.8598 4.59306 14.1909 4.48419 14.2316 4.21353L14.5988 1.77993C14.6321 1.55793 14.4418 1.36769 14.2198 1.40103ZM13.3227 6.65754C13.1461 6.6603 12.9779 6.73301 12.8548 6.8597C12.7318 6.9864 12.664 7.15673 12.6665 7.33332V13.3333C12.6652 13.4217 12.6815 13.5094 12.7145 13.5913C12.7474 13.6733 12.7963 13.7479 12.8584 13.8109C12.9204 13.8738 12.9943 13.9237 13.0758 13.9578C13.1573 13.9919 13.2448 14.0095 13.3331 14.0095C13.4215 14.0095 13.509 13.9919 13.5905 13.9578C13.672 13.9237 13.7459 13.8738 13.8079 13.8109C13.8699 13.7479 13.9188 13.6733 13.9518 13.5913C13.9847 13.5094 14.001 13.4217 13.9998 13.3333V7.33332C14.001 7.24413 13.9843 7.15559 13.9507 7.07297C13.9171 6.99034 13.8673 6.9153 13.8041 6.85228C13.741 6.78927 13.6658 6.73957 13.5832 6.70611C13.5005 6.67266 13.4119 6.65614 13.3227 6.65754ZM10.656 7.99087C10.4795 7.99363 10.3112 8.06634 10.1882 8.19303C10.0651 8.31973 9.99738 8.49006 9.9998 8.66665V13.3333C9.99855 13.4217 10.0149 13.5094 10.0478 13.5913C10.0808 13.6733 10.1297 13.7479 10.1917 13.8109C10.2537 13.8738 10.3276 13.9237 10.4091 13.9578C10.4906 13.9919 10.5781 14.0095 10.6665 14.0095C10.7548 14.0095 10.8423 13.9919 10.9238 13.9578C11.0053 13.9237 11.0792 13.8738 11.1412 13.8109C11.2033 13.7479 11.2522 13.6733 11.2851 13.5913C11.3181 13.5094 11.3344 13.4217 11.3331 13.3333V8.66665C11.3344 8.57746 11.3177 8.48893 11.2841 8.4063C11.2504 8.32367 11.2006 8.24863 11.1375 8.18562C11.0743 8.1226 10.9992 8.0729 10.9165 8.03945C10.8338 8.006 10.7452 7.98948 10.656 7.99087ZM7.98938 9.3242C7.8128 9.32696 7.64452 9.39967 7.52149 9.52637C7.39845 9.65306 7.33071 9.8234 7.33313 9.99999V13.3333C7.33188 13.4217 7.3482 13.5094 7.38114 13.5913C7.41409 13.6733 7.46299 13.7479 7.52502 13.8109C7.58705 13.8738 7.66097 13.9237 7.74247 13.9578C7.82398 13.9919 7.91145 14.0095 7.9998 14.0095C8.08815 14.0095 8.17562 13.9919 8.25712 13.9578C8.33863 13.9237 8.41254 13.8738 8.47457 13.8109C8.5366 13.7479 8.58551 13.6733 8.61845 13.5913C8.65139 13.5094 8.66771 13.4217 8.66646 13.3333V9.99999C8.66769 9.91079 8.651 9.82226 8.61739 9.73963C8.58378 9.65701 8.53393 9.58197 8.47079 9.51895C8.40766 9.45594 8.33252 9.40623 8.24983 9.37278C8.16713 9.33933 8.07857 9.32281 7.98938 9.3242ZM5.32271 10.6575C5.14613 10.6603 4.97786 10.733 4.85482 10.8597C4.73179 10.9864 4.66405 11.1567 4.66646 11.3333V13.3333C4.66521 13.4217 4.68154 13.5094 4.71448 13.5913C4.74742 13.6733 4.79633 13.7479 4.85836 13.8109C4.92039 13.8738 4.9943 13.9237 5.07581 13.9578C5.15731 13.9919 5.24478 14.0095 5.33313 14.0095C5.42148 14.0095 5.50895 13.9919 5.59045 13.9578C5.67196 13.9237 5.74587 13.8738 5.8079 13.8109C5.86993 13.7479 5.91884 13.6733 5.95178 13.5913C5.98473 13.5094 6.00105 13.4217 5.9998 13.3333V11.3333C6.00102 11.2441 5.98433 11.1556 5.95072 11.073C5.91711 10.9903 5.86726 10.9153 5.80412 10.8523C5.74099 10.7893 5.66585 10.7396 5.58316 10.7061C5.50047 10.6727 5.4119 10.6561 5.32271 10.6575ZM2.65605 11.9909C2.47946 11.9936 2.31119 12.0663 2.18816 12.193C2.06512 12.3197 1.99738 12.4901 1.9998 12.6667V13.3333C1.99855 13.4217 2.01487 13.5094 2.04781 13.5913C2.08075 13.6733 2.12966 13.7479 2.19169 13.8109C2.25372 13.8738 2.32764 13.9237 2.40914 13.9578C2.49065 13.9919 2.57811 14.0095 2.66646 14.0095C2.75481 14.0095 2.84228 13.9919 2.92379 13.9578C3.00529 13.9237 3.07921 13.8738 3.14124 13.8109C3.20327 13.7479 3.25217 13.6733 3.28512 13.5913C3.31806 13.5094 3.33438 13.4217 3.33313 13.3333V12.6667C3.33435 12.5775 3.31766 12.4889 3.28405 12.4063C3.25044 12.3237 3.20059 12.2486 3.13746 12.1856C3.07432 12.1226 2.99918 12.0729 2.91649 12.0394C2.8338 12.006 2.74524 11.9895 2.65605 11.9909Z"/>
</svg>
